<svg width="40" height="40" viewBox="0 0 28 28" fill="none" xmlns="http://www.w3.org/2000/svg">
<path d="M23.7952 16.7593H4.11265C3.70027 16.7593 3.36352 17.1155 3.40134 17.5359C3.83353 22.53 8.39311 26.4609 13.9539 26.4609C19.5148 26.4609 24.0743 22.5318 24.5065 17.5359C24.5425 17.1155 24.2076 16.7593 23.7952 16.7593Z" fill="#FF6633"/>
<path d="M10.4621 9.53876C10.2434 9.53876 10.026 9.44042 9.88416 9.25171C9.16838 8.30818 7.80839 7.72079 6.33573 7.72079C4.86307 7.72079 3.50309 8.30685 2.7873 9.25171C2.54473 9.57198 2.08875 9.63311 1.77062 9.38992C1.45117 9.14673 1.3902 8.68958 1.63277 8.37064C2.63222 7.05235 4.38986 6.26562 6.33573 6.26562C8.2816 6.26562 10.0392 7.05235 11.04 8.37064C11.2826 8.69091 11.2203 9.14673 10.9022 9.38992C10.7696 9.49092 10.6159 9.53876 10.4621 9.53876Z" fill="#414141"/>
<path d="M25.7902 9.53876C25.5715 9.53876 25.3541 9.44042 25.2123 9.25171C24.4965 8.30818 23.1365 7.72079 21.6639 7.72079C20.1912 7.72079 18.8312 8.30685 18.1154 9.25171C17.8729 9.57198 17.4169 9.63311 17.0988 9.38992C16.7793 9.14673 16.7183 8.68958 16.9609 8.37064C17.9603 7.05235 19.718 6.26562 21.6639 6.26562C23.6097 6.26562 25.3674 7.05235 26.3681 8.37064C26.6107 8.69091 26.5484 9.14673 26.2303 9.38992C26.0977 9.49092 25.944 9.53876 25.7902 9.53876Z" fill="#414141"/>
</svg>
